<svg width="33" height="33" viewBox="0 0 33 33" fill="none" xmlns="http://www.w3.org/2000/svg">
<path d="M25.715 8.179H28.172V10.74H29.082V8.179H31.565V7.295H29.082V4.76H28.172V7.295H25.715V8.179Z" fill="#505050"/>
<path d="M25.715 8.179H25.215V8.679H25.715V8.179ZM28.172 8.179H28.672V7.679H28.172V8.179ZM28.172 10.74H27.672V11.24H28.172V10.74ZM29.082 10.74V11.24H29.582V10.74H29.082ZM29.082 8.179V7.679H28.582V8.179H29.082ZM31.565 8.179V8.679H32.065V8.179H31.565ZM31.565 7.295H32.065V6.795H31.565V7.295ZM29.082 7.295H28.582V7.795H29.082V7.295ZM29.082 4.76H29.582V4.26H29.082V4.76ZM28.172 4.76V4.26H27.672V4.76H28.172ZM28.172 7.295V7.795H28.672V7.295H28.172ZM25.715 7.295V6.795H25.215V7.295H25.715ZM25.715 8.679H28.172V7.679H25.715V8.679ZM27.672 8.179V10.74H28.672V8.179H27.672ZM28.172 11.24H29.082V10.24H28.172V11.24ZM29.582 10.74V8.179H28.582V10.74H29.582ZM29.082 8.679H31.565V7.679H29.082V8.679ZM32.065 8.179V7.295H31.065V8.179H32.065ZM31.565 6.795H29.082V7.795H31.565V6.795ZM29.582 7.295V4.76H28.582V7.295H29.582ZM29.082 4.26H28.172V5.26H29.082V4.26ZM27.672 4.76V7.295H28.672V4.76H27.672ZM28.172 6.795H25.715V7.795H28.172V6.795ZM25.215 7.295V8.179H26.215V7.295H25.215Z" fill="#505050"/>
<g clip-path="url(#clip0)">
<path d="M3.73346 32.9538H2.93164L1.04493 30.277H1.76253C1.96139 30.277 2.12912 30.2642 2.26641 30.2386C2.4037 30.213 2.50561 30.1874 2.57213 30.1619C2.7349 30.0901 2.86087 29.9842 2.95004 29.8435C3.03921 29.7028 3.0838 29.5664 3.0838 29.4335C3.0838 29.2907 3.04063 29.1564 2.95429 29.0306C2.86795 28.9055 2.74269 28.8032 2.57992 28.7236C2.41715 28.6448 2.2289 28.605 2.01447 28.605H0.860927L0.876496 32.9531H0.227539V27.9604H2.01447C2.25367 27.9604 2.47801 27.9988 2.68678 28.0756C2.89555 28.1523 3.07884 28.2625 3.23666 28.4053C3.38952 28.5431 3.50771 28.7016 3.59192 28.8807C3.67614 29.0597 3.71789 29.2438 3.71789 29.4328C3.71789 29.7348 3.62589 30.0055 3.4426 30.2457C3.36617 30.348 3.27346 30.4425 3.16377 30.5292C3.05408 30.6159 2.94084 30.6877 2.82407 30.7438C2.63583 30.8156 2.45961 30.8511 2.29684 30.8511L3.73346 32.9538Z" fill="#313942"/>
<path d="M7.80404 33.0001C7.34545 33.0001 6.92438 32.8864 6.5401 32.659C6.15582 32.4316 5.85151 32.1225 5.62717 31.731C5.40283 31.3401 5.29102 30.9145 5.29102 30.454C5.29102 29.9936 5.40283 29.5693 5.62717 29.1814C5.85151 28.7927 6.15511 28.485 6.5401 28.2576C6.92438 28.0302 7.34616 27.9165 7.80404 27.9165C8.25697 27.9165 8.67592 28.0302 9.0602 28.2576C9.44448 28.485 9.7502 28.7934 9.97667 29.1814C10.2031 29.57 10.3164 29.9943 10.3164 30.454C10.3164 30.9145 10.2031 31.3394 9.97667 31.731C9.7502 32.1218 9.44448 32.4316 9.0602 32.659C8.67592 32.8864 8.25697 33.0001 7.80404 33.0001ZM7.80404 28.5518C7.46293 28.5518 7.14872 28.6378 6.86068 28.809C6.57265 28.9803 6.34548 29.2119 6.17705 29.5033C6.00933 29.7946 5.92511 30.1115 5.92511 30.454C5.92511 30.8015 6.00933 31.1213 6.17705 31.4126C6.34548 31.704 6.57265 31.9356 6.86068 32.1069C7.14801 32.2781 7.46293 32.3641 7.80404 32.3641C8.14515 32.3641 8.45937 32.2788 8.7474 32.1069C9.03472 31.9356 9.2626 31.704 9.43103 31.4126C9.59876 31.1213 9.68297 30.8015 9.68297 30.454C9.68297 30.1115 9.59876 29.7946 9.43103 29.5033C9.26331 29.2119 9.03472 28.9803 8.7474 28.809C8.45937 28.6378 8.14515 28.5518 7.80404 28.5518Z" fill="#313942"/>
<path d="M14.0587 33C13.799 33 13.5506 32.9502 13.3142 32.8508C13.0771 32.7513 12.8698 32.607 12.6914 32.4173C12.5081 32.2333 12.368 32.0222 12.2711 31.7849C12.1741 31.5468 12.126 31.2953 12.126 31.0295V27.9619H12.7601V31.0295C12.7601 31.2086 12.7933 31.3798 12.8591 31.5433C12.925 31.7067 13.0198 31.8502 13.1415 31.9725C13.4112 32.2333 13.7169 32.3633 14.058 32.3633C14.2314 32.3633 14.3963 32.3285 14.5541 32.2595C14.7119 32.1906 14.852 32.0947 14.9745 31.9718C15.0969 31.8488 15.191 31.706 15.2568 31.5426C15.3226 31.3791 15.3559 31.2079 15.3559 31.0288V27.9612H15.99V31.0288C15.99 31.2946 15.9412 31.5461 15.8449 31.7842C15.748 32.0222 15.6107 32.2325 15.4323 32.4166C15.249 32.6056 15.0403 32.7499 14.806 32.85C14.5732 32.9495 14.3234 33 14.0587 33Z" fill="#313942"/>
<path d="M21.8186 27.9612V28.6057H20.1308V32.9538H19.4818V28.6057H17.7939V27.9612H21.8186Z" fill="#313942"/>
<path d="M23.6211 32.9538V27.9612H26.7979V28.6057H24.2545V30.132H26.2021V30.7765H24.2545V32.3178H26.7979V32.9545H23.6211V32.9538Z" fill="#313942"/>
<path d="M26.9992 19.8928C23.3376 16.2425 19.9329 12.6562 16.3003 9.30715C14.3966 7.55199 12.6118 7.61524 10.5566 9.19559C8.72793 10.6018 7.09952 12.2597 5.15902 14.0077C8.34507 14.741 10.2113 16.7293 12.1242 18.7061C13.9401 20.5828 15.8481 22.3799 17.7935 24.1279C19.2047 25.3963 20.8776 25.3686 22.2987 24.2367C23.9681 22.9064 25.4472 21.3446 26.9992 19.8928ZM1.7366 24.6118C3.86323 22.5433 5.88512 20.5771 7.92894 18.5889C6.68552 16.4479 3.13996 16.3946 1.39479 18.1057C-0.212389 19.6811 -0.829499 22.7302 1.7366 24.6118Z" fill="#505050"/>
</g>
<defs>
<clipPath id="clip0">
<rect width="27" height="25" fill="white" transform="translate(0 8)"/>
</clipPath>
</defs>
</svg>
